<?xml version="1.0" encoding="utf-8"?>
<!-- Generator: Adobe Illustrator 23.0.2, SVG Export Plug-In . SVG Version: 6.00 Build 0)  -->
<svg version="1.1" id="Layer_1" xmlns="http://www.w3.org/2000/svg" xmlns:xlink="http://www.w3.org/1999/xlink" x="0px" y="0px"
	 viewBox="0 0 366 393" style="enable-background:new 0 0 366 393;" xml:space="preserve">
<style type="text/css">
	.st0{fill:#1E0F00;}
</style>
<g>
	<path class="st0" d="M334.97,220.84c-9.7,80.08-66.92,85.14-77.46,88.6c-4.49,1.47-46.22,12.1-98.67,8.58l-56.86,63.01l-0.06-72.61
		l-0.45-0.12c-76.39-21.72-73.81-103.15-72.95-145.9c0.86-42.74,8.7-77.76,32.01-101.31c41.85-38.82,128.08-33.02,128.08-33.02
		c72.82,0.33,107.73,22.77,115.82,30.29C331.29,81.93,344.98,138.29,334.97,220.84 M324.3,38.39
		c-9.56-9.01-48.22-37.73-134.31-38.12c0,0-101.51-6.27-151,40.21C11.44,68.68,1.75,109.94,0.72,161.13
		c-1.01,51.19-2.35,147.07,87.95,173.09l0.08,0.02l-0.05,39.68c0,0-0.57,16.07,9.75,19.34c12.5,3.97,19.83-8.24,31.77-21.4
		c6.56-7.22,15.59-17.83,22.4-25.94c61.76,5.29,109.26-6.85,114.65-8.64c12.48-4.15,83.04-13.4,94.51-109.28
		C373.63,129.11,356.05,66.59,324.3,38.39"/>
	<path class="st0" d="M269.22,232.78c-0.04-0.04-11.58-9.88-17.22-14.13c-5.32-4-13.8-9.37-18.54-12.11
		c-8.5-4.85-17.19-1.8-20.78,2.96l-7.45,9.59c-3.82,4.86-9.7,4.04-11.25,3.73c-11.01-2.76-22.72-9.65-34.7-21.25
		c-12.12-11.71-19.46-23.94-22.07-36.65l-0.19-0.84c-0.71-5.22,0.17-7.64,2.3-11.2l0.4-0.33c5.04-4.68,14.36-10.38,15.61-15.8
		c3.67-9.42-12.25-29.07-14.53-32.53c0,0-11.58-15.33-15.69-18.25c-4.45-3.7-11.33-5.81-18.28-1.54l-0.35,0.26
		c-19.95,13.5-27.18,21.26-25.21,32.84l1.03,4.66c10.12,31.9,29.66,65.9,58.79,96.18c28.82,29.9,60,47.81,90.72,60.22
		c7.98,2.65,16.26,0.37,24.75-6.89l0.14-0.11c6.51-6.08,11.66-12.59,15.51-19.56l0.04-0.14
		C275.99,244.52,274.72,237.54,269.22,232.78"/>
	<path class="st0" d="M221.38,162.94c-1.21,0-2.23-0.98-2.29-2.23c-0.4-8.27-2.63-14.6-6.63-18.83c-3.97-4.2-9.93-6.54-17.69-6.97
		c-1.26-0.07-2.24-1.18-2.17-2.48c0.07-1.3,1.14-2.29,2.42-2.23c8.96,0.5,15.93,3.33,20.74,8.41c4.79,5.07,7.45,12.42,7.91,21.86
		c0.06,1.3-0.92,2.39-2.18,2.46H221.38"/>
	<path class="st0" d="M244.12,170.74h-0.06c-1.26-0.04-2.26-1.11-2.24-2.41c0.35-15.87-4.28-29.29-13.78-39.9
		c-4.73-5.29-10.47-9.48-17.09-12.44c-6.63-2.96-14.35-4.79-22.93-5.44c-1.26-0.1-2.22-1.23-2.12-2.51c0.09-1.3,1.19-2.28,2.45-2.18
		c18.32,1.38,32.82,7.9,43.09,19.4c10.32,11.52,15.36,26.06,14.99,43.18C246.38,169.73,245.35,170.74,244.12,170.74"/>
	<path class="st0" d="M267.4,180.06c-1.26,0-2.29-1.04-2.3-2.33c-0.11-14.03-2.22-26.72-6.3-37.73
		c-4.06-10.93-10.18-20.54-18.19-28.56c-8.03-8.01-17.16-14.11-27.13-18.16c-10-4.06-21.14-6.15-33.12-6.24
		c-1.26-0.01-2.29-1.07-2.28-2.37s1.04-2.33,2.3-2.33h0.01c25.15,0.19,46.48,8.84,63.43,25.74c8.5,8.49,14.99,18.67,19.28,30.26
		c4.27,11.52,6.49,24.77,6.6,39.36c0.01,1.3-1.01,2.36-2.28,2.37H267.4z"/>
</g>
</svg>
